<svg height="512" viewBox="0 0 512 512" width="512" xmlns="http://www.w3.org/2000/svg"><g id="Out_line" data-name="Out line"><path d="m176 136h8a8 8 0 0 0 0-16h-8a8 8 0 0 0 0 16z"/><path d="m471.91992 318.86816a8.00052 8.00052 0 0 0 -6.78808-6.78808l-109.36011-15.6228-30.1145-30.11451a8.00235 8.00235 0 0 0 -5.65723-2.34277h-8v-52.80249a89.29161 89.29161 0 0 0 24-61.13794v-118.05957a8.00039 8.00039 0 0 0 -8-8h-208a8.00039 8.00039 0 0 0 -8 8v24a32.03667 32.03667 0 0 0 32 32h3.99976l-25.38453 60.92285-10 24a7.99677 7.99677 0 0 0 -.03271 6.0625c.01074.02612.01709.05322.02783.0791.10108.24366.22022.48145.34619.71607.01831.03418.0315.07031.0503.10425l.00048.001.00147.00293 39.99805 71.99707a8.00078 8.00078 0 0 0 6.99316 4.11423h40v8h-8a8.00235 8.00235 0 0 0 -5.65723 2.34277l-30.1145 30.11451-109.36011 15.6228a8.00052 8.00052 0 0 0 -6.78808 6.78808l-24 168 15.83984 2.26368 23.15137-162.06055 102.1001-14.58545 61.17138 61.17139a8.00181 8.00181 0 0 0 11.31446 0l26.34277-26.34278 26.34277 26.34278a8.00181 8.00181 0 0 0 11.31446 0l61.17138-61.17139 102.1001 14.58545 23.15137 162.06055 15.83984-2.26368zm-215.91992 5.81836-40-40v-36.68652a7.996 7.996 0 0 0 -7.37964-7.96875l21.62671-27.0332a7.985 7.985 0 0 0 1.73047-5.332 24.75848 24.75848 0 0 0 4.001.334h3.00195a24.802 24.802 0 0 0 20.67871-11.06738 73.81667 73.81667 0 0 0 5.15527-9.06861 227.35127 227.35127 0 0 0 31.18553 24.4875v72.335zm-77.32446-138.96875-34.532 17.26612-7.24072-13.03418 41.356-5.16944zm-11.43018-25.71777 4.22388 9.50391-42.29859 5.28709 6.16235-14.791zm-6.043 73.69116-9.28149-16.70727 33.25979-16.62989.96094 2.1626zm23.55203-73.69116h9.97022l20.03418 46.74512-5.93262 7.416zm46.27588-19.71582a14.62689 14.62689 0 0 1 24.96973 10.34282v5.54785a57.29271 57.29271 0 0 1 -9.65332 31.88282 8.83594 8.83594 0 0 1 -7.36621 3.94233h-3.00195a8.89815 8.89815 0 0 1 -3.959-.93457l-8.36572-4.18286-11.7666-27.45532zm-103.03027-84.28418v-16h192v110.05957a73.383 73.383 0 0 1 -17.31738 47.55957 211.4266 211.4266 0 0 1 -32.21143-26.552 73.62012 73.62012 0 0 0 1.52881-14.89234v-5.5478a30.65082 30.65082 0 0 0 -38.41626-29.627 211.49251 211.49251 0 0 1 -11.8562-26.665l-6.21-17.07031a8.00014 8.00014 0 0 0 -7.51754-5.26469h-64a16.01833 16.01833 0 0 1 -16-16zm74.39746 32 4.29395 11.80273a227.495 227.495 0 0 0 13.01464 29.17676l-15.96826 15.96826a7.96505 7.96505 0 0 0 -3.73779-.94775h-58.00049l23.33349-56zm-25.75293 152 16.81494-21.01855 4.11084 9.24951-9.41504 11.76904zm47.35547 116.68652-52.68652-52.68652 24-24h4.68652v8a8.00235 8.00235 0 0 0 2.34277 5.65723l42.34278 42.34277zm64 0-20.68555-20.68652 42.34278-42.34277a8.00235 8.00235 0 0 0 2.34277-5.65723v-8h4.68652l24 24z"/><path d="m384 408h16v80h-16z"/><path d="m112 408h16v80h-16z"/><path d="m64 163.508h15.999v32.985h-15.999z" transform="matrix(.243 -.97 .97 .243 -120.088 206.194)"/><path d="m62.111 224h35.777v16h-35.777z" transform="matrix(.894 -.447 .447 .894 -95.308 60.27)"/><path d="m94.111 256h35.777v16h-35.777z" transform="matrix(.447 -.894 .894 .447 -174.216 246.096)"/></g></svg>