<svg id="Capa_1" enable-background="new 0 0 508.449 508.449" height="512" viewBox="0 0 508.449 508.449" width="512" xmlns="http://www.w3.org/2000/svg"><g><path d="m408.886 222.084c-2.184-3.63-2.184-8.139 0-11.769l18.213-30.27c4.975-8.268 5.109-18.219.36-26.618s-13.345-13.414-22.994-13.414h-64.752v-41.776c0-4.142-3.357-7.5-7.5-7.5h-78.313c-4.143 0-7.5 3.358-7.5 7.5s3.357 7.5 7.5 7.5h70.813v122.373h-144.69v-122.373h43.877c4.143 0 7.5-3.358 7.5-7.5s-3.357-7.5-7.5-7.5h-43.878v-46.237c1.97-4.075 3.075-8.642 3.075-13.463 0-17.114-13.922-31.037-31.037-31.037-17.114 0-31.037 13.923-31.037 31.037 0 6.378 1.936 12.312 5.248 17.248-.039.31-.066.623-.066.943v395.094h-28.09c-11.355 0-20.594 9.238-20.594 20.594v29.364c0 7.813 6.355 14.168 14.168 14.168h129.117c7.813 0 14.168-6.356 14.168-14.168v-29.364c0-11.355-9.238-20.594-20.594-20.594h-34.358v-201.213h84.679v32.723c0 8.868 7.015 16.109 15.785 16.514.253.026.509.039.769.039h.363 26.843c4.143 0 7.5-3.358 7.5-7.5s-3.357-7.5-7.5-7.5h-8.388l37.389-36.403c1.607-1.564 2.355-3.673 2.251-5.749v-80.22h64.752c4.17 0 7.885 2.167 9.937 5.796 2.052 3.63 1.994 7.93-.156 11.502l-18.212 30.269c-5.055 8.4-5.055 18.836-.001 27.236l18.213 30.27c2.15 3.573 2.208 7.873.156 11.502-2.052 3.63-5.767 5.797-9.937 5.797h-66.004c-4.143 0-7.5 3.358-7.5 7.5s3.357 7.5 7.5 7.5h66.004c9.649 0 18.245-5.015 22.994-13.415 4.749-8.399 4.614-18.35-.36-26.618zm-256.826-207.084c8.843 0 16.037 7.194 16.037 16.037s-7.194 16.037-16.037 16.037-16.037-7.194-16.037-16.037 7.195-16.037 16.037-16.037zm-10.854 299.536v-54.268l23.816-20.591v54.268zm23.816-.761v54.268l-23.816 20.591v-54.269zm-23.816-73.336v-54.29c.094-.074 23.816-20.569 23.816-20.569v54.269zm0-74.097v-54.355c.258-.172 23.816-20.505 23.816-20.505v54.719c-1.31 1.491-23.816 20.141-23.816 20.141zm0-74.097v-32.135c3.381 1.266 7.037 1.963 10.855 1.963 4.626 0 9.014-1.024 12.962-2.847v12.705c-1.498 1.982-23.817 20.314-23.817 20.314zm78.768 372.671v28.533h-127.453v-28.533c0-3.084 2.51-5.594 5.594-5.594h35.591 38.816 41.858c3.085 0 5.594 2.51 5.594 5.594zm-78.768-20.594v-35.859l23.816-20.591v56.451h-23.816zm172.569-201.213-34.016 33.119c-.034-.127-.058-.258-.058-.396v-32.723z"/></g></svg>