<svg id="Capa_1" enable-background="new 0 0 512.001 512.001" height="512" viewBox="0 0 512.001 512.001" width="512" xmlns="http://www.w3.org/2000/svg"><g><path d="m261.837 309.874c.73.223 1.469.33 2.195.33 3.211 0 6.182-2.079 7.17-5.309 1.211-3.961-1.019-8.154-4.98-9.365-12.611-3.855-19.874-16.899-16.536-29.697l1.511-5.794c4.794 12.293 15.587 21.8 29.109 24.504l8.275 1.655v17.9c0 4.142 3.358 7.5 7.5 7.5h48.097c4.142 0 7.5-3.358 7.5-7.5v-17.9l8.275-1.655c13.522-2.704 24.315-12.212 29.109-24.504l1.511 5.794c3.337 12.791-3.923 25.834-16.526 29.693-3.961 1.213-6.188 5.407-4.976 9.367 1.213 3.96 5.408 6.189 9.367 4.975 20.316-6.221 32.021-27.227 26.649-47.822l-27.504-105.43c-6.818-26.136-30.444-44.39-57.455-44.39s-50.637 18.254-57.455 44.39l-27.503 105.43c-5.374 20.605 6.339 41.614 26.667 47.828zm98.373-69.389c-9.125 0-16.548-7.424-16.548-16.548s7.423-16.548 16.548-16.548 16.549 7.424 16.549 16.548-7.424 16.548-16.549 16.548zm-40.08-113.258c20.188 0 37.845 13.642 42.94 33.176l8.944 34.285c-3.649-1.478-7.631-2.3-11.804-2.3-17.396 0-31.548 14.153-31.548 31.548s14.152 31.548 31.548 31.548c5.804 0 11.242-1.582 15.919-4.328-2.109 9.271-9.492 16.752-19.118 18.677l-14.305 2.861c-3.506.701-6.029 3.779-6.029 7.354v16.548h-33.097v-16.546c0-3.575-2.523-6.653-6.029-7.354l-14.304-2.861c-9.625-1.925-17.008-9.406-19.118-18.677 4.677 2.746 10.115 4.328 15.919 4.328 17.396 0 31.548-14.153 31.548-31.548s-14.152-31.548-31.548-31.548c-4.173 0-8.155.822-11.804 2.3l8.944-34.285c5.096-19.536 22.754-33.178 42.942-33.178zm-56.629 96.71c0-9.125 7.423-16.548 16.548-16.548s16.548 7.424 16.548 16.548-7.423 16.548-16.548 16.548-16.548-7.423-16.548-16.548z"/><path d="m458.615 333.131c5.145-3.714 9.696-8.314 13.377-13.702 10.367-15.174 12.568-34.455 5.887-51.575l-85.18-218.273c-5.725-14.669-15.623-27.118-28.625-36.001-13.002-8.883-28.198-13.579-43.944-13.579s-30.942 4.695-43.944 13.578-22.9 21.332-28.625 36.001l-9.778 25.055-10.813-68.306c-.647-4.091-4.485-6.884-8.581-6.235-32.756 5.185-82.257 13.021-126.593 34.572-54.466 26.474-85.332 66.553-91.74 119.121-.43 3.529 1.678 6.872 5.045 8.01.791.267 1.599.395 2.398.395 2.604 0 5.098-1.362 6.474-3.709.14-.239 14.29-24.119 39.901-46.552 33.763-29.575 70.507-42.84 109.208-39.427 2.611.231 5.152-.938 6.706-3.033.692-.934 16.42-21.631 48.378-22.818l8.813 55.668-12.291 31.496-9.362-59.135c-.648-4.091-4.487-6.885-8.581-6.235-4.091.648-6.883 4.489-6.235 8.58l13.373 84.475-41.503 106.352c-6.681 17.12-4.48 36.401 5.887 51.575 3.681 5.388 8.232 9.988 13.377 13.702-31.05 10.878-53.386 40.459-53.386 75.177v96.194c0 2.158.93 4.212 2.552 5.636 1.376 1.208 3.138 1.864 4.948 1.864.322 0 .646-.02.97-.063 1.921-.25 47.732-6.414 107.277-30.547 34.975-14.175 67.381-31.64 96.319-51.911 35.158-24.628 65.265-53.488 89.533-85.818h2.498c35.646 0 64.645 29 64.645 64.645v96.194c0 4.142 3.358 7.5 7.5 7.5s7.5-3.358 7.5-7.5v-96.194c.001-34.717-22.335-64.299-53.385-75.177zm-298.141-275.862c-41.124-2.512-81.44 12.546-116.846 43.697-7.377 6.491-13.833 13.042-19.338 19.17 32.407-76.058 132.253-94.927 189.038-104.049l2.479 15.658c-30.456 1.727-48.72 18.259-55.333 25.524zm15.881 216.038 85.18-218.273c9.49-24.319 32.49-40.032 58.595-40.032s49.105 15.714 58.595 40.032l85.18 218.273c4.951 12.688 3.384 26.414-4.299 37.66s-19.901 17.696-33.521 17.696h-.079-211.832c-13.62 0-25.837-6.45-33.52-17.695-7.683-11.247-9.25-24.973-4.299-37.661zm31.549 70.356h113.994c-30.412 26.215-66.905 47.979-108.773 64.803-3.843 1.544-5.707 5.912-4.163 9.756 1.176 2.927 3.989 4.706 6.961 4.706.931 0 1.877-.174 2.794-.543 49.29-19.806 91.48-46.293 125.496-78.721h24.104c-79.084 83.465-187.799 111.761-225.058 119.327v-17.421c10.629-2.254 25.394-5.871 42.877-11.457 3.945-1.26 6.122-5.481 4.861-9.427-1.26-3.945-5.483-6.122-9.427-4.861-15.269 4.878-28.372 8.201-38.312 10.399v-21.915c.001-35.647 29.001-64.646 64.646-64.646zm124.038 73.376c-27.954 19.608-59.296 36.526-93.157 50.284-43.23 17.564-79.681 25.454-95.525 28.344v-17.383c36.893-7.183 160.621-37.655 245.331-134.621h22.28c-21.977 27.374-48.469 52.01-78.929 73.376z"/></g></svg>